<?xml version="1.0" encoding="utf-8" ?>
<svg xmlns="http://www.w3.org/2000/svg" xmlns:xlink="http://www.w3.org/1999/xlink" viewBox="100 430 825 162">
<path fill="#303B4C" d="M631.775 470.068C634.038 469.931 636.304 469.844 638.571 469.809C656.938 469.462 677.662 468.162 691.747 482.004C700.344 490.452 703.952 500.835 703.837 512.676C703.693 527.48 702.012 535.718 691.601 546.276C686.466 551.007 680.248 554.404 673.493 556.167C666.86 557.936 635.582 559.372 631.728 557.126C630.437 552.877 630.518 473.886 631.775 470.068Z"/>
<path fill="#FEFDFD" d="M641.517 479.06C656.635 478.817 671.299 477.599 683.703 488.485C690.281 494.258 693.11 503.578 693.245 512.114C693.426 523.547 691.717 531.202 683.894 539.558C672.559 550.393 656.147 549.078 641.636 548.994C641.307 525.888 641.53 502.21 641.517 479.06Z"/>
<path fill="#303B4C" d="M260.04 471.009C265.563 470.947 271.087 470.996 276.608 471.153C280.025 475.172 284.457 482.323 287.467 486.85C294.282 497.036 301.014 507.278 307.661 517.574C310.157 521.368 314.43 528.206 317.116 531.349C316.857 511.278 316.731 491.205 316.74 471.132L332.617 471.066L333.307 557.984L316.315 558.023C313.041 553.42 309.788 547.805 306.576 542.962L276.041 496.864C276.216 517.24 276.213 537.618 276.032 557.994L260.2 558.03L260.04 471.009Z"/>
<path fill="#303B4C" d="M744.885 490.29C763.942 487.902 781.338 501.383 783.782 520.433C786.225 539.483 772.794 556.918 753.752 559.417C734.631 561.926 717.108 548.427 714.655 529.3C712.202 510.172 725.75 492.688 744.885 490.29Z"/>
<path fill="#FEFDFD" d="M746.281 499.628C770.723 498.804 778.24 520.641 768.699 540.546C766.057 546.058 758.412 549.185 752.561 550.339C739.379 550.982 729.2 545.584 726.702 531.54C723.932 515.965 729.103 502.435 746.281 499.628Z"/>
<path fill="#303B4C" d="M374.488 489.679C390.478 488.464 404.016 497.073 408.433 512.495C410.204 518.681 410.107 523.152 410.066 529.484L360.633 529.494C360.714 530.03 360.8 530.565 360.893 531.099C361.682 535.589 363.82 540.597 367.861 542.91C377.864 548.636 385.942 545.078 391.56 536.434L400.875 536.998L408.46 537.15C404.116 550.093 395.846 556.882 381.97 558.918C348.503 563.828 334.719 526.126 351.388 501.621C356.477 494.141 365.534 490.735 374.488 489.679Z"/>
<path fill="#FEFDFD" d="M373.35 503.581C385.896 502.627 389.59 506.596 393.096 517.926C388.749 518.062 383.939 517.985 379.553 518.011L360.396 518.232C362.949 509.956 364.789 506.248 373.35 503.581Z"/>
<path fill="#303B4C" d="M530.536 490.687L546.952 490.667C546.786 513.109 546.773 535.552 546.912 557.995L530.989 558.052C530.882 554.337 530.993 550.25 531.019 546.505C522.661 559.574 506.066 563.946 492.911 554.035C486.023 548.845 484.605 539.515 484.117 531.36C483.943 517.947 484.053 504.333 484.057 490.903L499.79 490.823C499.748 498.898 499.704 506.956 499.674 515.068C499.631 526.608 497.541 545.367 514.462 545.097C532.66 544.807 530.645 529.096 530.566 516.092C530.467 507.624 530.457 499.155 530.536 490.687Z"/>
<path fill="#303B4C" d="M586.911 489.713C597.726 489.585 609.386 492.707 613.827 503.921C614.606 505.89 615.839 510.336 614.989 512.31C611.492 512.888 604.195 512.636 600.369 512.615C597.353 502.018 587.285 499.035 578.251 506.141C577.436 506.798 576.159 509.406 576.633 510.406C581.474 520.602 602.259 516.873 610.422 524.782C618.477 532.586 618.217 543.92 611.611 551.279C606.076 557.444 596.602 558.896 588.888 559.136C573.466 558.736 561.856 553.055 559.209 536.32C564.379 536.376 569.549 536.394 574.719 536.375C578.839 549.51 600.883 550.272 600.321 538.238C599.96 530.527 578.076 529.875 571.778 525.775C567.013 522.674 560.891 519.646 560.636 511.917C560.482 495.634 573.216 490.598 586.911 489.713Z"/>
<path fill="#315DFA" d="M219.952 474.648C220.497 497.514 219.926 521.29 220.168 544.282C220.27 554.002 220.867 576.821 219.904 585.735C218.321 588.138 216.307 591.155 213.219 591.546C207.717 592.241 201.146 592.043 195.571 592.045L164.05 592.034C158.018 592.033 139.007 592.568 133.917 591.966C132.308 591.779 130.772 591.19 129.45 590.254C127.756 589.048 126.545 587.134 125.543 585.355C125.423 580.845 125.432 575.565 125.298 571.524C125.116 566.055 130.842 562.518 134.083 566.748C136.111 569.395 135.455 579.146 135.477 581.976C159.674 581.878 186.132 582.525 210.047 581.884L209.917 476.576C214.624 476.655 216.302 477.282 219.952 474.648Z"/>
<path fill="#303B4C" d="M460.093 490.575L476.949 490.627C473.663 497.394 459.174 517.23 453.946 524.624C460.922 535.162 469.302 547.941 476.824 557.924C470.855 557.845 464.884 557.88 458.916 558.028C454.522 552.782 448.4 542.432 444.576 536.275C439.751 542.848 435.666 550.861 430.285 558.041L413.318 557.928C421.048 547.111 428.249 535.507 435.856 524.477C427.971 513.426 420.584 502.148 412.679 491.086C418.352 491.127 424.23 490.978 429.921 490.902C435.107 498.592 440.293 505.835 444.952 513.869C450.084 505.667 454.534 498.519 460.093 490.575Z"/>
<path fill="#303B4C" d="M890.844 490.189C907.326 488.979 915.638 495.566 918.893 511.489C915.664 511.782 912.067 511.872 908.802 512.019C906.262 502.82 900.92 498.781 891.26 499.148C884.754 499.395 878.911 503.509 879.798 510.55C880.778 517.554 890.736 519.563 897.628 520.778C914.298 523.716 927.531 535.051 915.841 552.403C912.243 557.743 902.972 559.346 896.191 559.879C880.372 559.966 870.928 555.185 867.228 538.985C871.266 538.199 873.647 537.835 877.732 537.512C880.129 550.019 887.28 550.98 898.717 550.472C904.737 550.204 910.076 546.054 908.794 539.558C907.354 532.266 898.48 531.067 892.528 529.468C883.501 527.338 870.917 524.031 869.062 513.187C868.09 507.503 869.849 499.746 874.548 495.957C879.371 492.069 884.836 490.888 890.844 490.189Z"/>
<path fill="#303B4C" d="M822.442 490.185C837.46 488.595 853.873 496.679 855.746 512.941L855.119 513.573C852.285 514.353 848.778 514.005 845.757 513.915C841.095 503.358 838.46 500.288 826.195 499.383C805.662 497.868 799.494 524.654 807.047 539.519C809.495 544.375 813.809 548.028 819.001 549.643C825.784 551.743 831.96 550.447 838.014 547.136C842.478 543.639 843.371 541.24 845.216 536.127C848.717 536.161 852.364 536.319 855.877 536.42C848.789 570.165 796.883 566.591 793.854 531.821C791.971 510.199 798.891 493.061 822.442 490.185Z"/>
<path fill="#315DFA" d="M107.071 433.553C129.561 433.093 155.976 433.178 178.49 433.612C177.402 436.092 177.335 440.763 177.181 443.603C156.654 442.905 132.383 443.511 111.494 443.502C111.056 459.465 110.934 475.434 111.13 491.402C111.164 499.341 111.311 507.327 111.097 515.263C111.035 517.576 110.071 523.426 106.726 523.069C103.824 522.76 101.187 520.696 101.513 517.599C101.18 494.06 101.495 470.495 101.207 446.954C101.113 439.271 100.539 438.08 107.071 433.553Z"/>
<path fill="#303B4C" d="M178.49 433.612L184.581 433.603L208.455 457.868C211.94 461.419 216.176 465.373 219.202 469.285C220.092 470.434 220.018 471.75 219.997 473.196C219.987 473.68 219.972 474.164 219.952 474.648C216.302 477.282 214.624 476.655 209.917 476.576C172.622 476.093 176.423 482.074 177.181 443.603C177.335 440.763 177.402 436.092 178.49 433.612Z"/>
<path fill="#FEFDFD" d="M187.049 450.252C188.403 451.169 201.506 465.015 203.32 466.892C198.038 466.997 192.431 466.907 187.123 466.909C186.901 461.44 187.019 455.742 187.049 450.252Z"/>
<path fill="#315DFA" d="M135.629 502.125C138.053 503.64 140.518 505.087 143.023 506.465C137.763 514.641 130.064 525.502 124.048 533.049C134.267 544.275 127.565 559.626 114.914 560.024C95.6352 560.631 91.3175 528.689 117.386 530.01C122.576 522.999 131.356 509.683 135.629 502.125Z"/>
<path fill="#303B4C" d="M135.629 502.125C132.74 497.868 130.959 493.662 132.029 488.419C132.927 484.171 135.538 480.482 139.246 478.222C142.979 475.92 147.488 475.237 151.736 476.331C163.179 479.29 166.053 492.81 159.446 502.072C157.395 503.985 155.969 505.541 153.478 506.846C148.804 507.603 147.605 508.003 143.023 506.465C140.518 505.087 138.053 503.64 135.629 502.125Z"/>
<path fill="#303B4C" d="M182.669 529.816C189.928 527.972 197.432 531.782 200.225 538.731C203.018 545.681 200.239 553.624 193.723 557.316C187.207 561.009 178.964 559.311 174.438 553.343C169.912 547.376 170.499 538.981 175.812 533.702C177.709 531.816 180.077 530.474 182.669 529.816Z"/>
<path fill="#315DFA" d="M153.478 506.846C155.969 505.541 157.395 503.985 159.446 502.072C166.421 510.747 175.088 522.029 182.669 529.816C180.077 530.474 177.709 531.816 175.812 533.702C175.718 533.527 168.994 525.841 168.114 524.802C163.171 518.869 158.292 512.883 153.478 506.846Z"/>
</svg>