<?xml version="1.0" encoding="utf-8" ?>
<svg xmlns="http://www.w3.org/2000/svg" xmlns:xlink="http://www.w3.org/1999/xlink" viewBox="320 260 390 500">
<path fill="#355BF1" d="M699.745 390.143C700.259 397.984 700.028 407.387 700.018 415.385L699.999 454.943L700.018 581.208L700.021 681.866L700.024 713.702C700.015 726.164 701.544 737.298 692.829 747.517C687.719 753.426 680.462 757.05 672.668 757.584C659.037 758.45 636.025 757.758 621.793 757.748L524.75 757.727L461.749 757.711C451.63 757.708 439.728 758.246 429.78 757.326C417.118 756.154 405.363 741.867 405.507 729.267C405.655 716.301 404.91 702.84 405.656 690.095C406.998 680.216 412.806 672.483 423.775 674.35C427.971 675.081 431.667 677.543 433.957 681.135C436.51 685.115 436.601 688.064 436.753 692.627C436.97 703.795 436.967 714.965 436.744 726.133C458.268 726.561 481.825 726.1 503.489 726.089L668.536 726.205L668.391 402.216C683.135 402.464 692.408 405.67 699.745 390.143Z"/>
<path fill="#333E4F" d="M405.656 690.095C406.998 680.216 412.806 672.483 423.775 674.35C427.971 675.081 431.667 677.543 433.957 681.135C436.51 685.115 436.601 688.064 436.753 692.627C435.364 694.033 434.182 696.45 432.877 698.126C430.473 701.221 426.881 703.168 422.975 703.493C415.536 704.155 406.044 697.486 405.656 690.095Z"/>
<path fill="#355BF1" d="M330.026 531.095C328.76 500.247 329.661 463.533 329.707 432.337L329.735 297.276C329.877 283.159 336.595 269.278 352.503 266.796C359.972 265.63 370.727 266.332 378.492 266.342L424.459 266.34C474.779 266.307 526.214 265.752 576.458 266.479C561.96 275.959 565.845 282.922 565.469 298.024L361.445 297.955L361.492 411.769C361.492 433.004 361.777 455.048 361.404 476.204C361.547 493.313 361.581 510.422 361.506 527.531C361.41 532.737 360.102 537.366 356.139 541.022C353.025 543.888 348.838 545.293 344.625 544.885C336.524 544.14 332.138 538.402 330.026 531.095Z"/>
<path fill="#333E4F" d="M330.026 531.095C331.506 528.935 331.139 527.581 331.983 525.354C337.116 511.801 352.456 512.436 359.319 523.879C360.088 525.495 360.309 526.152 361.506 527.531C361.41 532.737 360.102 537.366 356.139 541.022C353.025 543.888 348.838 545.293 344.625 544.885C336.524 544.14 332.138 538.402 330.026 531.095Z"/>
<path fill="#333E4F" d="M576.458 266.479C584.064 266.383 588.246 266.345 593.959 272.134C617.621 296.109 640.975 320.392 664.401 344.599C671.715 352.093 678.989 359.626 686.221 367.199C694.147 375.481 699.078 378.008 699.745 390.143C692.408 405.67 683.135 402.464 668.391 402.216C640.559 401.631 611.093 403.022 583.241 401.53C575.202 401.1 566.541 392.481 565.767 384.263C564.901 375.078 565.371 364.987 565.399 355.5L565.469 298.024C565.845 282.922 561.96 275.959 576.458 266.479Z"/>
<path fill="white" d="M596.641 320.234C601.118 322.567 639.46 363.956 645.777 370.555C630.346 371.061 612.077 370.55 596.487 370.527L596.641 320.234Z"/>
<path fill="#355BF1" d="M381.403 567.109C400.275 538.531 419.332 510.074 438.572 481.742C444.476 487.98 451.925 492.544 460.163 494.972C440.991 522.936 421.322 550.556 401.166 577.819C413.334 590.158 419.611 604.324 416.163 621.749C411.005 647.813 386.273 663.222 360.623 658.143C348.882 655.748 338.578 648.777 331.987 638.77C325.012 628.192 322.525 615.276 325.075 602.864C330.558 576.56 355.446 561.624 381.403 567.109Z"/>
<path fill="#333E4F" d="M438.572 481.742C420.447 462.594 420.86 432.497 439.503 413.854C458.147 395.211 488.244 394.798 507.392 412.922C526.54 431.047 527.779 461.121 510.187 480.759C504.898 486.663 498.247 491.186 490.813 493.936C480.975 497.574 470.225 497.938 460.163 494.972C451.925 492.544 444.476 487.98 438.572 481.742Z"/>
<path fill="#333E4F" d="M582.541 567.035C604.909 560.911 628.354 572.302 637.364 593.671C646.374 615.04 638.162 639.778 618.162 651.518C598.162 663.257 572.559 658.367 558.294 640.083C544.028 621.799 545.512 595.776 561.763 579.231C567.49 573.401 574.659 569.193 582.541 567.035Z"/>
<path fill="#355BF1" d="M510.187 480.759C527.621 502.006 545.238 523.101 563.036 544.044C569.163 551.247 576.228 560.185 582.541 567.035C574.659 569.193 567.49 573.401 561.763 579.231C538.477 553.152 513.297 521.209 490.813 493.936C498.247 491.186 504.898 486.663 510.187 480.759Z"/>
</svg>